<svg xmlns="http://www.w3.org/2000/svg" viewBox="0 0 1536 702" preserveAspectRatio="xMidYMid" width="1536" height="702" xmlns:xlink="http://www.w3.org/1999/xlink" style="shape-rendering:auto;display:block;background-position-x:0%;background-position-y:0%;background-size:auto;background-origin:padding-box;background-clip:border-box;background:scroll rgb(255, 255, 255) none  repeat;width:1536px;height:702px;;animation:none"><g><rect fill="#fff7f3" height="19.55" width="75" y="-1" x="0" style="fill:rgb(255, 247, 243);;animation:none"></rect>
<rect fill="#fde0dd" height="19.55" width="287" y="-1" x="74" style="fill:rgb(253, 224, 221);;animation:none"></rect>
<rect fill="#fcc5c0" height="19.55" width="128" y="-1" x="361" style="fill:rgb(252, 197, 192);;animation:none"></rect>
<rect fill="#fa9fb5" height="19.55" width="89" y="-1" x="488" style="fill:rgb(250, 159, 181);;animation:none"></rect>
<rect fill="#f768a1" height="19.55" width="300" y="-1" x="577" style="fill:rgb(247, 104, 161);;animation:none"></rect>
<rect fill="#dd3497" height="19.55" width="359" y="-1" x="876" style="fill:rgb(221, 52, 151);;animation:none"></rect>
<rect fill="#ae017e" height="19.55" width="68" y="-1" x="1235" style="fill:rgb(174, 1, 126);;animation:none"></rect>
<rect fill="#7a0177" height="19.55" width="97" y="-1" x="1303" style="fill:rgb(122, 1, 119);;animation:none"></rect>
<rect fill="#49006a" height="19.55" width="136" y="-1" x="1400" style="fill:rgb(73, 0, 106);;animation:none"></rect>
<rect fill="#fff7f3" height="19.55" width="235" y="16.6" x="0" style="fill:rgb(255, 247, 243);;animation:none"></rect>
<rect fill="#fde0dd" height="19.55" width="81" y="16.6" x="234" style="fill:rgb(253, 224, 221);;animation:none"></rect>
<rect fill="#fcc5c0" height="19.55" width="163" y="16.6" x="314" style="fill:rgb(252, 197, 192);;animation:none"></rect>
<rect fill="#fa9fb5" height="19.55" width="207" y="16.6" x="476" style="fill:rgb(250, 159, 181);;animation:none"></rect>
<rect fill="#f768a1" height="19.55" width="215" y="16.6" x="682" style="fill:rgb(247, 104, 161);;animation:none"></rect>
<rect fill="#dd3497" height="19.55" width="276" y="16.6" x="897" style="fill:rgb(221, 52, 151);;animation:none"></rect>
<rect fill="#ae017e" height="19.55" width="99" y="16.6" x="1172" style="fill:rgb(174, 1, 126);;animation:none"></rect>
<rect fill="#7a0177" height="19.55" width="116" y="16.6" x="1270" style="fill:rgb(122, 1, 119);;animation:none"></rect>
<rect fill="#49006a" height="19.55" width="150" y="16.6" x="1386" style="fill:rgb(73, 0, 106);;animation:none"></rect>
<rect fill="#fff7f3" height="19.55" width="193" y="34.1" x="0" style="fill:rgb(255, 247, 243);;animation:none"></rect>
<rect fill="#fde0dd" height="19.55" width="237" y="34.1" x="192" style="fill:rgb(253, 224, 221);;animation:none"></rect>
<rect fill="#fcc5c0" height="19.55" width="202" y="34.1" x="428" style="fill:rgb(252, 197, 192);;animation:none"></rect>
<rect fill="#fa9fb5" height="19.55" width="205" y="34.1" x="630" style="fill:rgb(250, 159, 181);;animation:none"></rect>
<rect fill="#f768a1" height="19.55" width="105" y="34.1" x="834" style="fill:rgb(247, 104, 161);;animation:none"></rect>
<rect fill="#dd3497" height="19.55" width="244" y="34.1" x="939" style="fill:rgb(221, 52, 151);;animation:none"></rect>
<rect fill="#ae017e" height="19.55" width="162" y="34.1" x="1183" style="fill:rgb(174, 1, 126);;animation:none"></rect>
<rect fill="#7a0177" height="19.55" width="141" y="34.1" x="1344" style="fill:rgb(122, 1, 119);;animation:none"></rect>
<rect fill="#49006a" height="19.55" width="52" y="34.1" x="1484" style="fill:rgb(73, 0, 106);;animation:none"></rect>
<rect fill="#fff7f3" height="19.55" width="148" y="51.7" x="0" style="fill:rgb(255, 247, 243);;animation:none"></rect>
<rect fill="#fde0dd" height="19.55" width="268" y="51.7" x="147" style="fill:rgb(253, 224, 221);;animation:none"></rect>
<rect fill="#fcc5c0" height="19.55" width="46" y="51.7" x="414" style="fill:rgb(252, 197, 192);;animation:none"></rect>
<rect fill="#fa9fb5" height="19.55" width="298" y="51.7" x="460" style="fill:rgb(250, 159, 181);;animation:none"></rect>
<rect fill="#f768a1" height="19.55" width="148" y="51.7" x="757" style="fill:rgb(247, 104, 161);;animation:none"></rect>
<rect fill="#dd3497" height="19.55" width="249" y="51.7" x="905" style="fill:rgb(221, 52, 151);;animation:none"></rect>
<rect fill="#ae017e" height="19.55" width="48" y="51.7" x="1153" style="fill:rgb(174, 1, 126);;animation:none"></rect>
<rect fill="#7a0177" height="19.55" width="175" y="51.7" x="1201" style="fill:rgb(122, 1, 119);;animation:none"></rect>
<rect fill="#49006a" height="19.55" width="161" y="51.7" x="1375" style="fill:rgb(73, 0, 106);;animation:none"></rect>
<rect fill="#fff7f3" height="19.55" width="191" y="69.2" x="0" style="fill:rgb(255, 247, 243);;animation:none"></rect>
<rect fill="#fde0dd" height="19.55" width="14" y="69.2" x="190" style="fill:rgb(253, 224, 221);;animation:none"></rect>
<rect fill="#fcc5c0" height="19.55" width="334" y="69.2" x="204" style="fill:rgb(252, 197, 192);;animation:none"></rect>
<rect fill="#fa9fb5" height="19.55" width="292" y="69.2" x="538" style="fill:rgb(250, 159, 181);;animation:none"></rect>
<rect fill="#f768a1" height="19.55" width="74" y="69.2" x="830" style="fill:rgb(247, 104, 161);;animation:none"></rect>
<rect fill="#dd3497" height="19.55" width="217" y="69.2" x="903" style="fill:rgb(221, 52, 151);;animation:none"></rect>
<rect fill="#ae017e" height="19.55" width="81" y="69.2" x="1119" style="fill:rgb(174, 1, 126);;animation:none"></rect>
<rect fill="#7a0177" height="19.55" width="163" y="69.2" x="1200" style="fill:rgb(122, 1, 119);;animation:none"></rect>
<rect fill="#49006a" height="19.55" width="173" y="69.2" x="1363" style="fill:rgb(73, 0, 106);;animation:none"></rect>
<rect fill="#fff7f3" height="19.55" width="107" y="86.8" x="0" style="fill:rgb(255, 247, 243);;animation:none"></rect>
<rect fill="#fde0dd" height="19.55" width="35" y="86.8" x="106" style="fill:rgb(253, 224, 221);;animation:none"></rect>
<rect fill="#fcc5c0" height="19.55" width="175" y="86.8" x="141" style="fill:rgb(252, 197, 192);;animation:none"></rect>
<rect fill="#fa9fb5" height="19.55" width="223" y="86.8" x="315" style="fill:rgb(250, 159, 181);;animation:none"></rect>
<rect fill="#f768a1" height="19.55" width="311" y="86.8" x="537" style="fill:rgb(247, 104, 161);;animation:none"></rect>
<rect fill="#dd3497" height="19.55" width="10" y="86.8" x="848" style="fill:rgb(221, 52, 151);;animation:none"></rect>
<rect fill="#ae017e" height="19.55" width="216" y="86.8" x="857" style="fill:rgb(174, 1, 126);;animation:none"></rect>
<rect fill="#7a0177" height="19.55" width="167" y="86.8" x="1073" style="fill:rgb(122, 1, 119);;animation:none"></rect>
<rect fill="#49006a" height="19.55" width="297" y="86.8" x="1239" style="fill:rgb(73, 0, 106);;animation:none"></rect>
<rect fill="#fff7f3" height="19.55" width="243" y="104.3" x="0" style="fill:rgb(255, 247, 243);;animation:none"></rect>
<rect fill="#fde0dd" height="19.55" width="287" y="104.3" x="242" style="fill:rgb(253, 224, 221);;animation:none"></rect>
<rect fill="#fcc5c0" height="19.55" width="185" y="104.3" x="528" style="fill:rgb(252, 197, 192);;animation:none"></rect>
<rect fill="#fa9fb5" height="19.55" width="233" y="104.3" x="713" style="fill:rgb(250, 159, 181);;animation:none"></rect>
<rect fill="#f768a1" height="19.55" width="215" y="104.3" x="945" style="fill:rgb(247, 104, 161);;animation:none"></rect>
<rect fill="#dd3497" height="19.55" width="125" y="104.3" x="1159" style="fill:rgb(221, 52, 151);;animation:none"></rect>
<rect fill="#ae017e" height="19.55" width="140" y="104.3" x="1284" style="fill:rgb(174, 1, 126);;animation:none"></rect>
<rect fill="#7a0177" height="19.55" width="76" y="104.3" x="1424" style="fill:rgb(122, 1, 119);;animation:none"></rect>
<rect fill="#49006a" height="19.55" width="37" y="104.3" x="1499" style="fill:rgb(73, 0, 106);;animation:none"></rect>
<rect fill="#fff7f3" height="19.55" width="365" y="121.9" x="0" style="fill:rgb(255, 247, 243);;animation:none"></rect>
<rect fill="#fde0dd" height="19.55" width="112" y="121.9" x="364" style="fill:rgb(253, 224, 221);;animation:none"></rect>
<rect fill="#fcc5c0" height="19.55" width="211" y="121.9" x="476" style="fill:rgb(252, 197, 192);;animation:none"></rect>
<rect fill="#fa9fb5" height="19.55" width="78" y="121.9" x="687" style="fill:rgb(250, 159, 181);;animation:none"></rect>
<rect fill="#f768a1" height="19.55" width="276" y="121.9" x="764" style="fill:rgb(247, 104, 161);;animation:none"></rect>
<rect fill="#dd3497" height="19.55" width="286" y="121.9" x="1039" style="fill:rgb(221, 52, 151);;animation:none"></rect>
<rect fill="#ae017e" height="19.55" width="92" y="121.9" x="1325" style="fill:rgb(174, 1, 126);;animation:none"></rect>
<rect fill="#7a0177" height="19.55" width="72" y="121.9" x="1417" style="fill:rgb(122, 1, 119);;animation:none"></rect>
<rect fill="#49006a" height="19.55" width="47" y="121.9" x="1489" style="fill:rgb(73, 0, 106);;animation:none"></rect>
<rect fill="#fff7f3" height="19.55" width="111" y="139.4" x="0" style="fill:rgb(255, 247, 243);;animation:none"></rect>
<rect fill="#fde0dd" height="19.55" width="240" y="139.4" x="110" style="fill:rgb(253, 224, 221);;animation:none"></rect>
<rect fill="#fcc5c0" height="19.55" width="247" y="139.4" x="350" style="fill:rgb(252, 197, 192);;animation:none"></rect>
<rect fill="#fa9fb5" height="19.55" width="112" y="139.4" x="596" style="fill:rgb(250, 159, 181);;animation:none"></rect>
<rect fill="#f768a1" height="19.55" width="127" y="139.4" x="708" style="fill:rgb(247, 104, 161);;animation:none"></rect>
<rect fill="#dd3497" height="19.55" width="226" y="139.4" x="835" style="fill:rgb(221, 52, 151);;animation:none"></rect>
<rect fill="#ae017e" height="19.55" width="82" y="139.4" x="1061" style="fill:rgb(174, 1, 126);;animation:none"></rect>
<rect fill="#7a0177" height="19.55" width="170" y="139.4" x="1142" style="fill:rgb(122, 1, 119);;animation:none"></rect>
<rect fill="#49006a" height="19.55" width="224" y="139.4" x="1312" style="fill:rgb(73, 0, 106);;animation:none"></rect>
<rect fill="#fff7f3" height="19.55" width="229" y="157" x="0" style="fill:rgb(255, 247, 243);;animation:none"></rect>
<rect fill="#fde0dd" height="19.55" width="261" y="157" x="228" style="fill:rgb(253, 224, 221);;animation:none"></rect>
<rect fill="#fcc5c0" height="19.55" width="111" y="157" x="488" style="fill:rgb(252, 197, 192);;animation:none"></rect>
<rect fill="#fa9fb5" height="19.55" width="37" y="157" x="599" style="fill:rgb(250, 159, 181);;animation:none"></rect>
<rect fill="#f768a1" height="19.55" width="132" y="157" x="636" style="fill:rgb(247, 104, 161);;animation:none"></rect>
<rect fill="#dd3497" height="19.55" width="50" y="157" x="767" style="fill:rgb(221, 52, 151);;animation:none"></rect>
<rect fill="#ae017e" height="19.55" width="254" y="157" x="817" style="fill:rgb(174, 1, 126);;animation:none"></rect>
<rect fill="#7a0177" height="19.55" width="166" y="157" x="1070" style="fill:rgb(122, 1, 119);;animation:none"></rect>
<rect fill="#49006a" height="19.55" width="301" y="157" x="1235" style="fill:rgb(73, 0, 106);;animation:none"></rect>
<rect fill="#fff7f3" height="19.55" width="41" y="174.5" x="0" style="fill:rgb(255, 247, 243);;animation:none"></rect>
<rect fill="#fde0dd" height="19.55" width="205" y="174.5" x="40" style="fill:rgb(253, 224, 221);;animation:none"></rect>
<rect fill="#fcc5c0" height="19.55" width="227" y="174.5" x="244" style="fill:rgb(252, 197, 192);;animation:none"></rect>
<rect fill="#fa9fb5" height="19.55" width="95" y="174.5" x="470" style="fill:rgb(250, 159, 181);;animation:none"></rect>
<rect fill="#f768a1" height="19.55" width="211" y="174.5" x="564" style="fill:rgb(247, 104, 161);;animation:none"></rect>
<rect fill="#dd3497" height="19.55" width="66" y="174.5" x="775" style="fill:rgb(221, 52, 151);;animation:none"></rect>
<rect fill="#ae017e" height="19.55" width="200" y="174.5" x="840" style="fill:rgb(174, 1, 126);;animation:none"></rect>
<rect fill="#7a0177" height="19.55" width="242" y="174.5" x="1040" style="fill:rgb(122, 1, 119);;animation:none"></rect>
<rect fill="#49006a" height="19.55" width="255" y="174.5" x="1281" style="fill:rgb(73, 0, 106);;animation:none"></rect>
<rect fill="#fff7f3" height="19.55" width="263" y="192.1" x="0" style="fill:rgb(255, 247, 243);;animation:none"></rect>
<rect fill="#fde0dd" height="19.55" width="153" y="192.1" x="262" style="fill:rgb(253, 224, 221);;animation:none"></rect>
<rect fill="#fcc5c0" height="19.55" width="169" y="192.1" x="414" style="fill:rgb(252, 197, 192);;animation:none"></rect>
<rect fill="#fa9fb5" height="19.55" width="153" y="192.1" x="582" style="fill:rgb(250, 159, 181);;animation:none"></rect>
<rect fill="#f768a1" height="19.55" width="46" y="192.1" x="735" style="fill:rgb(247, 104, 161);;animation:none"></rect>
<rect fill="#dd3497" height="19.55" width="225" y="192.1" x="781" style="fill:rgb(221, 52, 151);;animation:none"></rect>
<rect fill="#ae017e" height="19.55" width="155" y="192.1" x="1005" style="fill:rgb(174, 1, 126);;animation:none"></rect>
<rect fill="#7a0177" height="19.55" width="303" y="192.1" x="1160" style="fill:rgb(122, 1, 119);;animation:none"></rect>
<rect fill="#49006a" height="19.55" width="74" y="192.1" x="1462" style="fill:rgb(73, 0, 106);;animation:none"></rect>
<rect fill="#fff7f3" height="19.55" width="212" y="209.6" x="0" style="fill:rgb(255, 247, 243);;animation:none"></rect>
<rect fill="#fde0dd" height="19.55" width="125" y="209.6" x="211" style="fill:rgb(253, 224, 221);;animation:none"></rect>
<rect fill="#fcc5c0" height="19.55" width="93" y="209.6" x="336" style="fill:rgb(252, 197, 192);;animation:none"></rect>
<rect fill="#fa9fb5" height="19.55" width="151" y="209.6" x="428" style="fill:rgb(250, 159, 181);;animation:none"></rect>
<rect fill="#f768a1" height="19.55" width="201" y="209.6" x="579" style="fill:rgb(247, 104, 161);;animation:none"></rect>
<rect fill="#dd3497" height="19.55" width="211" y="209.6" x="779" style="fill:rgb(221, 52, 151);;animation:none"></rect>
<rect fill="#ae017e" height="19.55" width="213" y="209.6" x="989" style="fill:rgb(174, 1, 126);;animation:none"></rect>
<rect fill="#7a0177" height="19.55" width="156" y="209.6" x="1202" style="fill:rgb(122, 1, 119);;animation:none"></rect>
<rect fill="#49006a" height="19.55" width="178" y="209.6" x="1358" style="fill:rgb(73, 0, 106);;animation:none"></rect>
<rect fill="#fff7f3" height="19.55" width="65" y="227.2" x="0" style="fill:rgb(255, 247, 243);;animation:none"></rect>
<rect fill="#fde0dd" height="19.55" width="217" y="227.2" x="64" style="fill:rgb(253, 224, 221);;animation:none"></rect>
<rect fill="#fcc5c0" height="19.55" width="116" y="227.2" x="280" style="fill:rgb(252, 197, 192);;animation:none"></rect>
<rect fill="#fa9fb5" height="19.55" width="184" y="227.2" x="395" style="fill:rgb(250, 159, 181);;animation:none"></rect>
<rect fill="#f768a1" height="19.55" width="106" y="227.2" x="579" style="fill:rgb(247, 104, 161);;animation:none"></rect>
<rect fill="#dd3497" height="19.55" width="193" y="227.2" x="684" style="fill:rgb(221, 52, 151);;animation:none"></rect>
<rect fill="#ae017e" height="19.55" width="188" y="227.2" x="876" style="fill:rgb(174, 1, 126);;animation:none"></rect>
<rect fill="#7a0177" height="19.55" width="199" y="227.2" x="1064" style="fill:rgb(122, 1, 119);;animation:none"></rect>
<rect fill="#49006a" height="19.55" width="273" y="227.2" x="1263" style="fill:rgb(73, 0, 106);;animation:none"></rect>
<rect fill="#fff7f3" height="19.55" width="117" y="244.7" x="0" style="fill:rgb(255, 247, 243);;animation:none"></rect>
<rect fill="#fde0dd" height="19.55" width="141" y="244.7" x="116" style="fill:rgb(253, 224, 221);;animation:none"></rect>
<rect fill="#fcc5c0" height="19.55" width="228" y="244.7" x="257" style="fill:rgb(252, 197, 192);;animation:none"></rect>
<rect fill="#fa9fb5" height="19.55" width="277" y="244.7" x="485" style="fill:rgb(250, 159, 181);;animation:none"></rect>
<rect fill="#f768a1" height="19.55" width="84" y="244.7" x="761" style="fill:rgb(247, 104, 161);;animation:none"></rect>
<rect fill="#dd3497" height="19.55" width="221" y="244.7" x="845" style="fill:rgb(221, 52, 151);;animation:none"></rect>
<rect fill="#ae017e" height="19.55" width="174" y="244.7" x="1066" style="fill:rgb(174, 1, 126);;animation:none"></rect>
<rect fill="#7a0177" height="19.55" width="201" y="244.7" x="1239" style="fill:rgb(122, 1, 119);;animation:none"></rect>
<rect fill="#49006a" height="19.55" width="96" y="244.7" x="1440" style="fill:rgb(73, 0, 106);;animation:none"></rect>
<rect fill="#fff7f3" height="19.55" width="52" y="262.3" x="0" style="fill:rgb(255, 247, 243);;animation:none"></rect>
<rect fill="#fde0dd" height="19.55" width="373" y="262.3" x="51" style="fill:rgb(253, 224, 221);;animation:none"></rect>
<rect fill="#fcc5c0" height="19.55" width="140" y="262.3" x="424" style="fill:rgb(252, 197, 192);;animation:none"></rect>
<rect fill="#fa9fb5" height="19.55" width="67" y="262.3" x="563" style="fill:rgb(250, 159, 181);;animation:none"></rect>
<rect fill="#f768a1" height="19.55" width="141" y="262.3" x="630" style="fill:rgb(247, 104, 161);;animation:none"></rect>
<rect fill="#dd3497" height="19.55" width="462" y="262.3" x="771" style="fill:rgb(221, 52, 151);;animation:none"></rect>
<rect fill="#ae017e" height="19.55" width="253" y="262.3" x="1232" style="fill:rgb(174, 1, 126);;animation:none"></rect>
<rect fill="#7a0177" height="19.55" width="38" y="262.3" x="1484" style="fill:rgb(122, 1, 119);;animation:none"></rect>
<rect fill="#49006a" height="19.55" width="15" y="262.3" x="1521" style="fill:rgb(73, 0, 106);;animation:none"></rect>
<rect fill="#fff7f3" height="19.55" width="113" y="279.8" x="0" style="fill:rgb(255, 247, 243);;animation:none"></rect>
<rect fill="#fde0dd" height="19.55" width="349" y="279.8" x="112" style="fill:rgb(253, 224, 221);;animation:none"></rect>
<rect fill="#fcc5c0" height="19.55" width="91" y="279.8" x="460" style="fill:rgb(252, 197, 192);;animation:none"></rect>
<rect fill="#fa9fb5" height="19.55" width="53" y="279.8" x="550" style="fill:rgb(250, 159, 181);;animation:none"></rect>
<rect fill="#f768a1" height="19.55" width="195" y="279.8" x="603" style="fill:rgb(247, 104, 161);;animation:none"></rect>
<rect fill="#dd3497" height="19.55" width="132" y="279.8" x="797" style="fill:rgb(221, 52, 151);;animation:none"></rect>
<rect fill="#ae017e" height="19.55" width="73" y="279.8" x="928" style="fill:rgb(174, 1, 126);;animation:none"></rect>
<rect fill="#7a0177" height="19.55" width="216" y="279.8" x="1001" style="fill:rgb(122, 1, 119);;animation:none"></rect>
<rect fill="#49006a" height="19.55" width="320" y="279.8" x="1216" style="fill:rgb(73, 0, 106);;animation:none"></rect>
<rect fill="#fff7f3" height="19.55" width="277" y="297.4" x="0" style="fill:rgb(255, 247, 243);;animation:none"></rect>
<rect fill="#fde0dd" height="19.55" width="198" y="297.4" x="276" style="fill:rgb(253, 224, 221);;animation:none"></rect>
<rect fill="#fcc5c0" height="19.55" width="134" y="297.4" x="473" style="fill:rgb(252, 197, 192);;animation:none"></rect>
<rect fill="#fa9fb5" height="19.55" width="31" y="297.4" x="607" style="fill:rgb(250, 159, 181);;animation:none"></rect>
<rect fill="#f768a1" height="19.55" width="120" y="297.4" x="638" style="fill:rgb(247, 104, 161);;animation:none"></rect>
<rect fill="#dd3497" height="19.55" width="280" y="297.4" x="758" style="fill:rgb(221, 52, 151);;animation:none"></rect>
<rect fill="#ae017e" height="19.55" width="65" y="297.4" x="1037" style="fill:rgb(174, 1, 126);;animation:none"></rect>
<rect fill="#7a0177" height="19.55" width="253" y="297.4" x="1101" style="fill:rgb(122, 1, 119);;animation:none"></rect>
<rect fill="#49006a" height="19.55" width="183" y="297.4" x="1353" style="fill:rgb(73, 0, 106);;animation:none"></rect>
<rect fill="#fff7f3" height="19.55" width="93" y="314.9" x="0" style="fill:rgb(255, 247, 243);;animation:none"></rect>
<rect fill="#fde0dd" height="19.55" width="107" y="314.9" x="92" style="fill:rgb(253, 224, 221);;animation:none"></rect>
<rect fill="#fcc5c0" height="19.55" width="31" y="314.9" x="199" style="fill:rgb(252, 197, 192);;animation:none"></rect>
<rect fill="#fa9fb5" height="19.55" width="105" y="314.9" x="230" style="fill:rgb(250, 159, 181);;animation:none"></rect>
<rect fill="#f768a1" height="19.55" width="337" y="314.9" x="334" style="fill:rgb(247, 104, 161);;animation:none"></rect>
<rect fill="#dd3497" height="19.55" width="150" y="314.9" x="671" style="fill:rgb(221, 52, 151);;animation:none"></rect>
<rect fill="#ae017e" height="19.55" width="366" y="314.9" x="820" style="fill:rgb(174, 1, 126);;animation:none"></rect>
<rect fill="#7a0177" height="19.55" width="218" y="314.9" x="1186" style="fill:rgb(122, 1, 119);;animation:none"></rect>
<rect fill="#49006a" height="19.55" width="133" y="314.9" x="1403" style="fill:rgb(73, 0, 106);;animation:none"></rect>
<rect fill="#fff7f3" height="19.55" width="98" y="332.4" x="0" style="fill:rgb(255, 247, 243);;animation:none"></rect>
<rect fill="#fde0dd" height="19.55" width="125" y="332.4" x="97" style="fill:rgb(253, 224, 221);;animation:none"></rect>
<rect fill="#fcc5c0" height="19.55" width="299" y="332.4" x="222" style="fill:rgb(252, 197, 192);;animation:none"></rect>
<rect fill="#fa9fb5" height="19.55" width="54" y="332.4" x="521" style="fill:rgb(250, 159, 181);;animation:none"></rect>
<rect fill="#f768a1" height="19.55" width="122" y="332.4" x="574" style="fill:rgb(247, 104, 161);;animation:none"></rect>
<rect fill="#dd3497" height="19.55" width="201" y="332.4" x="696" style="fill:rgb(221, 52, 151);;animation:none"></rect>
<rect fill="#ae017e" height="19.55" width="263" y="332.4" x="896" style="fill:rgb(174, 1, 126);;animation:none"></rect>
<rect fill="#7a0177" height="19.55" width="246" y="332.4" x="1159" style="fill:rgb(122, 1, 119);;animation:none"></rect>
<rect fill="#49006a" height="19.55" width="132" y="332.4" x="1404" style="fill:rgb(73, 0, 106);;animation:none"></rect>
<rect fill="#fff7f3" height="19.55" width="331" y="350" x="0" style="fill:rgb(255, 247, 243);;animation:none"></rect>
<rect fill="#fde0dd" height="19.55" width="143" y="350" x="330" style="fill:rgb(253, 224, 221);;animation:none"></rect>
<rect fill="#fcc5c0" height="19.55" width="102" y="350" x="472" style="fill:rgb(252, 197, 192);;animation:none"></rect>
<rect fill="#fa9fb5" height="19.55" width="112" y="350" x="573" style="fill:rgb(250, 159, 181);;animation:none"></rect>
<rect fill="#f768a1" height="19.55" width="68" y="350" x="685" style="fill:rgb(247, 104, 161);;animation:none"></rect>
<rect fill="#dd3497" height="19.55" width="340" y="350" x="752" style="fill:rgb(221, 52, 151);;animation:none"></rect>
<rect fill="#ae017e" height="19.55" width="87" y="350" x="1092" style="fill:rgb(174, 1, 126);;animation:none"></rect>
<rect fill="#7a0177" height="19.55" width="280" y="350" x="1178" style="fill:rgb(122, 1, 119);;animation:none"></rect>
<rect fill="#49006a" height="19.55" width="78" y="350" x="1458" style="fill:rgb(73, 0, 106);;animation:none"></rect>
<rect fill="#fff7f3" height="19.55" width="237" y="367.6" x="0" style="fill:rgb(255, 247, 243);;animation:none"></rect>
<rect fill="#fde0dd" height="19.55" width="63" y="367.6" x="236" style="fill:rgb(253, 224, 221);;animation:none"></rect>
<rect fill="#fcc5c0" height="19.55" width="82" y="367.6" x="299" style="fill:rgb(252, 197, 192);;animation:none"></rect>
<rect fill="#fa9fb5" height="19.55" width="87" y="367.6" x="381" style="fill:rgb(250, 159, 181);;animation:none"></rect>
<rect fill="#f768a1" height="19.55" width="195" y="367.6" x="467" style="fill:rgb(247, 104, 161);;animation:none"></rect>
<rect fill="#dd3497" height="19.55" width="214" y="367.6" x="661" style="fill:rgb(221, 52, 151);;animation:none"></rect>
<rect fill="#ae017e" height="19.55" width="232" y="367.6" x="875" style="fill:rgb(174, 1, 126);;animation:none"></rect>
<rect fill="#7a0177" height="19.55" width="157" y="367.6" x="1107" style="fill:rgb(122, 1, 119);;animation:none"></rect>
<rect fill="#49006a" height="19.55" width="273" y="367.6" x="1263" style="fill:rgb(73, 0, 106);;animation:none"></rect>
<rect fill="#fff7f3" height="19.55" width="173" y="385.1" x="0" style="fill:rgb(255, 247, 243);;animation:none"></rect>
<rect fill="#fde0dd" height="19.55" width="107" y="385.1" x="172" style="fill:rgb(253, 224, 221);;animation:none"></rect>
<rect fill="#fcc5c0" height="19.55" width="238" y="385.1" x="279" style="fill:rgb(252, 197, 192);;animation:none"></rect>
<rect fill="#fa9fb5" height="19.55" width="138" y="385.1" x="516" style="fill:rgb(250, 159, 181);;animation:none"></rect>
<rect fill="#f768a1" height="19.55" width="340" y="385.1" x="654" style="fill:rgb(247, 104, 161);;animation:none"></rect>
<rect fill="#dd3497" height="19.55" width="148" y="385.1" x="993" style="fill:rgb(221, 52, 151);;animation:none"></rect>
<rect fill="#ae017e" height="19.55" width="59" y="385.1" x="1141" style="fill:rgb(174, 1, 126);;animation:none"></rect>
<rect fill="#7a0177" height="19.55" width="237" y="385.1" x="1200" style="fill:rgb(122, 1, 119);;animation:none"></rect>
<rect fill="#49006a" height="19.55" width="100" y="385.1" x="1436" style="fill:rgb(73, 0, 106);;animation:none"></rect>
<rect fill="#fff7f3" height="19.55" width="38" y="402.7" x="0" style="fill:rgb(255, 247, 243);;animation:none"></rect>
<rect fill="#fde0dd" height="19.55" width="296" y="402.7" x="37" style="fill:rgb(253, 224, 221);;animation:none"></rect>
<rect fill="#fcc5c0" height="19.55" width="246" y="402.7" x="332" style="fill:rgb(252, 197, 192);;animation:none"></rect>
<rect fill="#fa9fb5" height="19.55" width="70" y="402.7" x="577" style="fill:rgb(250, 159, 181);;animation:none"></rect>
<rect fill="#f768a1" height="19.55" width="208" y="402.7" x="647" style="fill:rgb(247, 104, 161);;animation:none"></rect>
<rect fill="#dd3497" height="19.55" width="129" y="402.7" x="855" style="fill:rgb(221, 52, 151);;animation:none"></rect>
<rect fill="#ae017e" height="19.55" width="117" y="402.7" x="984" style="fill:rgb(174, 1, 126);;animation:none"></rect>
<rect fill="#7a0177" height="19.55" width="259" y="402.7" x="1100" style="fill:rgb(122, 1, 119);;animation:none"></rect>
<rect fill="#49006a" height="19.55" width="177" y="402.7" x="1359" style="fill:rgb(73, 0, 106);;animation:none"></rect>
<rect fill="#fff7f3" height="19.55" width="149" y="420.2" x="0" style="fill:rgb(255, 247, 243);;animation:none"></rect>
<rect fill="#fde0dd" height="19.55" width="12" y="420.2" x="148" style="fill:rgb(253, 224, 221);;animation:none"></rect>
<rect fill="#fcc5c0" height="19.55" width="220" y="420.2" x="159" style="fill:rgb(252, 197, 192);;animation:none"></rect>
<rect fill="#fa9fb5" height="19.55" width="160" y="420.2" x="379" style="fill:rgb(250, 159, 181);;animation:none"></rect>
<rect fill="#f768a1" height="19.55" width="234" y="420.2" x="539" style="fill:rgb(247, 104, 161);;animation:none"></rect>
<rect fill="#dd3497" height="19.55" width="152" y="420.2" x="772" style="fill:rgb(221, 52, 151);;animation:none"></rect>
<rect fill="#ae017e" height="19.55" width="168" y="420.2" x="924" style="fill:rgb(174, 1, 126);;animation:none"></rect>
<rect fill="#7a0177" height="19.55" width="175" y="420.2" x="1091" style="fill:rgb(122, 1, 119);;animation:none"></rect>
<rect fill="#49006a" height="19.55" width="270" y="420.2" x="1266" style="fill:rgb(73, 0, 106);;animation:none"></rect>
<rect fill="#fff7f3" height="19.55" width="275" y="437.8" x="0" style="fill:rgb(255, 247, 243);;animation:none"></rect>
<rect fill="#fde0dd" height="19.55" width="45" y="437.8" x="274" style="fill:rgb(253, 224, 221);;animation:none"></rect>
<rect fill="#fcc5c0" height="19.55" width="284" y="437.8" x="319" style="fill:rgb(252, 197, 192);;animation:none"></rect>
<rect fill="#fa9fb5" height="19.55" width="236" y="437.8" x="603" style="fill:rgb(250, 159, 181);;animation:none"></rect>
<rect fill="#f768a1" height="19.55" width="236" y="437.8" x="838" style="fill:rgb(247, 104, 161);;animation:none"></rect>
<rect fill="#dd3497" height="19.55" width="152" y="437.8" x="1074" style="fill:rgb(221, 52, 151);;animation:none"></rect>
<rect fill="#ae017e" height="19.55" width="53" y="437.8" x="1225" style="fill:rgb(174, 1, 126);;animation:none"></rect>
<rect fill="#7a0177" height="19.55" width="88" y="437.8" x="1277" style="fill:rgb(122, 1, 119);;animation:none"></rect>
<rect fill="#49006a" height="19.55" width="171" y="437.8" x="1365" style="fill:rgb(73, 0, 106);;animation:none"></rect>
<rect fill="#fff7f3" height="19.55" width="121" y="455.3" x="0" style="fill:rgb(255, 247, 243);;animation:none"></rect>
<rect fill="#fde0dd" height="19.55" width="133" y="455.3" x="120" style="fill:rgb(253, 224, 221);;animation:none"></rect>
<rect fill="#fcc5c0" height="19.55" width="117" y="455.3" x="252" style="fill:rgb(252, 197, 192);;animation:none"></rect>
<rect fill="#fa9fb5" height="19.55" width="311" y="455.3" x="369" style="fill:rgb(250, 159, 181);;animation:none"></rect>
<rect fill="#f768a1" height="19.55" width="73" y="455.3" x="680" style="fill:rgb(247, 104, 161);;animation:none"></rect>
<rect fill="#dd3497" height="19.55" width="148" y="455.3" x="753" style="fill:rgb(221, 52, 151);;animation:none"></rect>
<rect fill="#ae017e" height="19.55" width="267" y="455.3" x="900" style="fill:rgb(174, 1, 126);;animation:none"></rect>
<rect fill="#7a0177" height="19.55" width="233" y="455.3" x="1167" style="fill:rgb(122, 1, 119);;animation:none"></rect>
<rect fill="#49006a" height="19.55" width="137" y="455.3" x="1399" style="fill:rgb(73, 0, 106);;animation:none"></rect>
<rect fill="#fff7f3" height="19.55" width="94" y="472.9" x="0" style="fill:rgb(255, 247, 243);;animation:none"></rect>
<rect fill="#fde0dd" height="19.55" width="54" y="472.9" x="93" style="fill:rgb(253, 224, 221);;animation:none"></rect>
<rect fill="#fcc5c0" height="19.55" width="161" y="472.9" x="147" style="fill:rgb(252, 197, 192);;animation:none"></rect>
<rect fill="#fa9fb5" height="19.55" width="229" y="472.9" x="307" style="fill:rgb(250, 159, 181);;animation:none"></rect>
<rect fill="#f768a1" height="19.55" width="255" y="472.9" x="536" style="fill:rgb(247, 104, 161);;animation:none"></rect>
<rect fill="#dd3497" height="19.55" width="98" y="472.9" x="790" style="fill:rgb(221, 52, 151);;animation:none"></rect>
<rect fill="#ae017e" height="19.55" width="281" y="472.9" x="887" style="fill:rgb(174, 1, 126);;animation:none"></rect>
<rect fill="#7a0177" height="19.55" width="111" y="472.9" x="1168" style="fill:rgb(122, 1, 119);;animation:none"></rect>
<rect fill="#49006a" height="19.55" width="257" y="472.9" x="1279" style="fill:rgb(73, 0, 106);;animation:none"></rect>
<rect fill="#fff7f3" height="19.55" width="286" y="490.4" x="0" style="fill:rgb(255, 247, 243);;animation:none"></rect>
<rect fill="#fde0dd" height="19.55" width="320" y="490.4" x="285" style="fill:rgb(253, 224, 221);;animation:none"></rect>
<rect fill="#fcc5c0" height="19.55" width="43" y="490.4" x="604" style="fill:rgb(252, 197, 192);;animation:none"></rect>
<rect fill="#fa9fb5" height="19.55" width="90" y="490.4" x="647" style="fill:rgb(250, 159, 181);;animation:none"></rect>
<rect fill="#f768a1" height="19.55" width="125" y="490.4" x="736" style="fill:rgb(247, 104, 161);;animation:none"></rect>
<rect fill="#dd3497" height="19.55" width="90" y="490.4" x="860" style="fill:rgb(221, 52, 151);;animation:none"></rect>
<rect fill="#ae017e" height="19.55" width="101" y="490.4" x="949" style="fill:rgb(174, 1, 126);;animation:none"></rect>
<rect fill="#7a0177" height="19.55" width="197" y="490.4" x="1050" style="fill:rgb(122, 1, 119);;animation:none"></rect>
<rect fill="#49006a" height="19.55" width="290" y="490.4" x="1246" style="fill:rgb(73, 0, 106);;animation:none"></rect>
<rect fill="#fff7f3" height="19.55" width="139" y="508" x="0" style="fill:rgb(255, 247, 243);;animation:none"></rect>
<rect fill="#fde0dd" height="19.55" width="66" y="508" x="138" style="fill:rgb(253, 224, 221);;animation:none"></rect>
<rect fill="#fcc5c0" height="19.55" width="219" y="508" x="204" style="fill:rgb(252, 197, 192);;animation:none"></rect>
<rect fill="#fa9fb5" height="19.55" width="203" y="508" x="422" style="fill:rgb(250, 159, 181);;animation:none"></rect>
<rect fill="#f768a1" height="19.55" width="93" y="508" x="625" style="fill:rgb(247, 104, 161);;animation:none"></rect>
<rect fill="#dd3497" height="19.55" width="195" y="508" x="718" style="fill:rgb(221, 52, 151);;animation:none"></rect>
<rect fill="#ae017e" height="19.55" width="233" y="508" x="913" style="fill:rgb(174, 1, 126);;animation:none"></rect>
<rect fill="#7a0177" height="19.55" width="186" y="508" x="1145" style="fill:rgb(122, 1, 119);;animation:none"></rect>
<rect fill="#49006a" height="19.55" width="205" y="508" x="1331" style="fill:rgb(73, 0, 106);;animation:none"></rect>
<rect fill="#fff7f3" height="19.55" width="200" y="525.5" x="0" style="fill:rgb(255, 247, 243);;animation:none"></rect>
<rect fill="#fde0dd" height="19.55" width="67" y="525.5" x="199" style="fill:rgb(253, 224, 221);;animation:none"></rect>
<rect fill="#fcc5c0" height="19.55" width="133" y="525.5" x="265" style="fill:rgb(252, 197, 192);;animation:none"></rect>
<rect fill="#fa9fb5" height="19.55" width="50" y="525.5" x="397" style="fill:rgb(250, 159, 181);;animation:none"></rect>
<rect fill="#f768a1" height="19.55" width="317" y="525.5" x="446" style="fill:rgb(247, 104, 161);;animation:none"></rect>
<rect fill="#dd3497" height="19.55" width="113" y="525.5" x="763" style="fill:rgb(221, 52, 151);;animation:none"></rect>
<rect fill="#ae017e" height="19.55" width="312" y="525.5" x="875" style="fill:rgb(174, 1, 126);;animation:none"></rect>
<rect fill="#7a0177" height="19.55" width="137" y="525.5" x="1186" style="fill:rgb(122, 1, 119);;animation:none"></rect>
<rect fill="#49006a" height="19.55" width="213" y="525.5" x="1323" style="fill:rgb(73, 0, 106);;animation:none"></rect>
<rect fill="#fff7f3" height="19.55" width="78" y="543.1" x="0" style="fill:rgb(255, 247, 243);;animation:none"></rect>
<rect fill="#fde0dd" height="19.55" width="307" y="543.1" x="77" style="fill:rgb(253, 224, 221);;animation:none"></rect>
<rect fill="#fcc5c0" height="19.55" width="232" y="543.1" x="383" style="fill:rgb(252, 197, 192);;animation:none"></rect>
<rect fill="#fa9fb5" height="19.55" width="61" y="543.1" x="614" style="fill:rgb(250, 159, 181);;animation:none"></rect>
<rect fill="#f768a1" height="19.55" width="71" y="543.1" x="675" style="fill:rgb(247, 104, 161);;animation:none"></rect>
<rect fill="#dd3497" height="19.55" width="273" y="543.1" x="745" style="fill:rgb(221, 52, 151);;animation:none"></rect>
<rect fill="#ae017e" height="19.55" width="249" y="543.1" x="1018" style="fill:rgb(174, 1, 126);;animation:none"></rect>
<rect fill="#7a0177" height="19.55" width="148" y="543.1" x="1266" style="fill:rgb(122, 1, 119);;animation:none"></rect>
<rect fill="#49006a" height="19.55" width="122" y="543.1" x="1414" style="fill:rgb(73, 0, 106);;animation:none"></rect>
<rect fill="#fff7f3" height="19.55" width="336" y="560.6" x="0" style="fill:rgb(255, 247, 243);;animation:none"></rect>
<rect fill="#fde0dd" height="19.55" width="111" y="560.6" x="335" style="fill:rgb(253, 224, 221);;animation:none"></rect>
<rect fill="#fcc5c0" height="19.55" width="32" y="560.6" x="445" style="fill:rgb(252, 197, 192);;animation:none"></rect>
<rect fill="#fa9fb5" height="19.55" width="183" y="560.6" x="477" style="fill:rgb(250, 159, 181);;animation:none"></rect>
<rect fill="#f768a1" height="19.55" width="242" y="560.6" x="659" style="fill:rgb(247, 104, 161);;animation:none"></rect>
<rect fill="#dd3497" height="19.55" width="99" y="560.6" x="901" style="fill:rgb(221, 52, 151);;animation:none"></rect>
<rect fill="#ae017e" height="19.55" width="210" y="560.6" x="999" style="fill:rgb(174, 1, 126);;animation:none"></rect>
<rect fill="#7a0177" height="19.55" width="172" y="560.6" x="1209" style="fill:rgb(122, 1, 119);;animation:none"></rect>
<rect fill="#49006a" height="19.55" width="155" y="560.6" x="1381" style="fill:rgb(73, 0, 106);;animation:none"></rect>
<rect fill="#fff7f3" height="19.55" width="92" y="578.1" x="0" style="fill:rgb(255, 247, 243);;animation:none"></rect>
<rect fill="#fde0dd" height="19.55" width="55" y="578.1" x="91" style="fill:rgb(253, 224, 221);;animation:none"></rect>
<rect fill="#fcc5c0" height="19.55" width="146" y="578.1" x="145" style="fill:rgb(252, 197, 192);;animation:none"></rect>
<rect fill="#fa9fb5" height="19.55" width="133" y="578.1" x="291" style="fill:rgb(250, 159, 181);;animation:none"></rect>
<rect fill="#f768a1" height="19.55" width="267" y="578.1" x="423" style="fill:rgb(247, 104, 161);;animation:none"></rect>
<rect fill="#dd3497" height="19.55" width="228" y="578.1" x="690" style="fill:rgb(221, 52, 151);;animation:none"></rect>
<rect fill="#ae017e" height="19.55" width="245" y="578.1" x="917" style="fill:rgb(174, 1, 126);;animation:none"></rect>
<rect fill="#7a0177" height="19.55" width="85" y="578.1" x="1162" style="fill:rgb(122, 1, 119);;animation:none"></rect>
<rect fill="#49006a" height="19.55" width="290" y="578.1" x="1246" style="fill:rgb(73, 0, 106);;animation:none"></rect>
<rect fill="#fff7f3" height="19.55" width="252" y="595.7" x="0" style="fill:rgb(255, 247, 243);;animation:none"></rect>
<rect fill="#fde0dd" height="19.55" width="146" y="595.7" x="251" style="fill:rgb(253, 224, 221);;animation:none"></rect>
<rect fill="#fcc5c0" height="19.55" width="63" y="595.7" x="396" style="fill:rgb(252, 197, 192);;animation:none"></rect>
<rect fill="#fa9fb5" height="19.55" width="42" y="595.7" x="459" style="fill:rgb(250, 159, 181);;animation:none"></rect>
<rect fill="#f768a1" height="19.55" width="165" y="595.7" x="500" style="fill:rgb(247, 104, 161);;animation:none"></rect>
<rect fill="#dd3497" height="19.55" width="260" y="595.7" x="664" style="fill:rgb(221, 52, 151);;animation:none"></rect>
<rect fill="#ae017e" height="19.55" width="145" y="595.7" x="924" style="fill:rgb(174, 1, 126);;animation:none"></rect>
<rect fill="#7a0177" height="19.55" width="267" y="595.7" x="1068" style="fill:rgb(122, 1, 119);;animation:none"></rect>
<rect fill="#49006a" height="19.55" width="201" y="595.7" x="1335" style="fill:rgb(73, 0, 106);;animation:none"></rect>
<rect fill="#fff7f3" height="19.55" width="247" y="613.3" x="0" style="fill:rgb(255, 247, 243);;animation:none"></rect>
<rect fill="#fde0dd" height="19.55" width="163" y="613.3" x="246" style="fill:rgb(253, 224, 221);;animation:none"></rect>
<rect fill="#fcc5c0" height="19.55" width="178" y="613.3" x="408" style="fill:rgb(252, 197, 192);;animation:none"></rect>
<rect fill="#fa9fb5" height="19.55" width="123" y="613.3" x="586" style="fill:rgb(250, 159, 181);;animation:none"></rect>
<rect fill="#f768a1" height="19.55" width="94" y="613.3" x="708" style="fill:rgb(247, 104, 161);;animation:none"></rect>
<rect fill="#dd3497" height="19.55" width="89" y="613.3" x="802" style="fill:rgb(221, 52, 151);;animation:none"></rect>
<rect fill="#ae017e" height="19.55" width="261" y="613.3" x="890" style="fill:rgb(174, 1, 126);;animation:none"></rect>
<rect fill="#7a0177" height="19.55" width="239" y="613.3" x="1151" style="fill:rgb(122, 1, 119);;animation:none"></rect>
<rect fill="#49006a" height="19.55" width="147" y="613.3" x="1389" style="fill:rgb(73, 0, 106);;animation:none"></rect>
<rect fill="#fff7f3" height="19.55" width="143" y="630.8" x="0" style="fill:rgb(255, 247, 243);;animation:none"></rect>
<rect fill="#fde0dd" height="19.55" width="176" y="630.8" x="142" style="fill:rgb(253, 224, 221);;animation:none"></rect>
<rect fill="#fcc5c0" height="19.55" width="226" y="630.8" x="318" style="fill:rgb(252, 197, 192);;animation:none"></rect>
<rect fill="#fa9fb5" height="19.55" width="152" y="630.8" x="543" style="fill:rgb(250, 159, 181);;animation:none"></rect>
<rect fill="#f768a1" height="19.55" width="80" y="630.8" x="695" style="fill:rgb(247, 104, 161);;animation:none"></rect>
<rect fill="#dd3497" height="19.55" width="269" y="630.8" x="774" style="fill:rgb(221, 52, 151);;animation:none"></rect>
<rect fill="#ae017e" height="19.55" width="167" y="630.8" x="1042" style="fill:rgb(174, 1, 126);;animation:none"></rect>
<rect fill="#7a0177" height="19.55" width="113" y="630.8" x="1209" style="fill:rgb(122, 1, 119);;animation:none"></rect>
<rect fill="#49006a" height="19.55" width="214" y="630.8" x="1322" style="fill:rgb(73, 0, 106);;animation:none"></rect>
<rect fill="#fff7f3" height="19.55" width="58" y="648.4" x="0" style="fill:rgb(255, 247, 243);;animation:none"></rect>
<rect fill="#fde0dd" height="19.55" width="283" y="648.4" x="57" style="fill:rgb(253, 224, 221);;animation:none"></rect>
<rect fill="#fcc5c0" height="19.55" width="188" y="648.4" x="340" style="fill:rgb(252, 197, 192);;animation:none"></rect>
<rect fill="#fa9fb5" height="19.55" width="169" y="648.4" x="527" style="fill:rgb(250, 159, 181);;animation:none"></rect>
<rect fill="#f768a1" height="19.55" width="116" y="648.4" x="696" style="fill:rgb(247, 104, 161);;animation:none"></rect>
<rect fill="#dd3497" height="19.55" width="174" y="648.4" x="812" style="fill:rgb(221, 52, 151);;animation:none"></rect>
<rect fill="#ae017e" height="19.55" width="240" y="648.4" x="986" style="fill:rgb(174, 1, 126);;animation:none"></rect>
<rect fill="#7a0177" height="19.55" width="238" y="648.4" x="1225" style="fill:rgb(122, 1, 119);;animation:none"></rect>
<rect fill="#49006a" height="19.55" width="73" y="648.4" x="1463" style="fill:rgb(73, 0, 106);;animation:none"></rect>
<rect fill="#fff7f3" height="19.55" width="235" y="665.9" x="0" style="fill:rgb(255, 247, 243);;animation:none"></rect>
<rect fill="#fde0dd" height="19.55" width="43" y="665.9" x="234" style="fill:rgb(253, 224, 221);;animation:none"></rect>
<rect fill="#fcc5c0" height="19.55" width="226" y="665.9" x="277" style="fill:rgb(252, 197, 192);;animation:none"></rect>
<rect fill="#fa9fb5" height="19.55" width="223" y="665.9" x="503" style="fill:rgb(250, 159, 181);;animation:none"></rect>
<rect fill="#f768a1" height="19.55" width="182" y="665.9" x="726" style="fill:rgb(247, 104, 161);;animation:none"></rect>
<rect fill="#dd3497" height="19.55" width="216" y="665.9" x="907" style="fill:rgb(221, 52, 151);;animation:none"></rect>
<rect fill="#ae017e" height="19.55" width="143" y="665.9" x="1123" style="fill:rgb(174, 1, 126);;animation:none"></rect>
<rect fill="#7a0177" height="19.55" width="207" y="665.9" x="1266" style="fill:rgb(122, 1, 119);;animation:none"></rect>
<rect fill="#49006a" height="19.55" width="64" y="665.9" x="1472" style="fill:rgb(73, 0, 106);;animation:none"></rect>
<rect fill="#fff7f3" height="19.55" width="194" y="683.5" x="0" style="fill:rgb(255, 247, 243);;animation:none"></rect>
<rect fill="#fde0dd" height="19.55" width="87" y="683.5" x="193" style="fill:rgb(253, 224, 221);;animation:none"></rect>
<rect fill="#fcc5c0" height="19.55" width="179" y="683.5" x="279" style="fill:rgb(252, 197, 192);;animation:none"></rect>
<rect fill="#fa9fb5" height="19.55" width="229" y="683.5" x="458" style="fill:rgb(250, 159, 181);;animation:none"></rect>
<rect fill="#f768a1" height="19.55" width="243" y="683.5" x="686" style="fill:rgb(247, 104, 161);;animation:none"></rect>
<rect fill="#dd3497" height="19.55" width="223" y="683.5" x="928" style="fill:rgb(221, 52, 151);;animation:none"></rect>
<rect fill="#ae017e" height="19.55" width="135" y="683.5" x="1151" style="fill:rgb(174, 1, 126);;animation:none"></rect>
<rect fill="#7a0177" height="19.55" width="64" y="683.5" x="1285" style="fill:rgb(122, 1, 119);;animation:none"></rect>
<rect fill="#49006a" height="19.55" width="187" y="683.5" x="1349" style="fill:rgb(73, 0, 106);;animation:none"></rect>
<g></g></g><!-- [ldio] generated by https://loading.io --></svg>